<svg width="1080" height="1080" viewBox="0 0 1080 1080" fill="none" xmlns="http://www.w3.org/2000/svg">
<g clip-path="url(#clip0_1297_12813)">
<rect width="1080" height="1080" fill="white"/>
<path d="M933.374 526.192H55V574.103H933.374V526.192Z" fill="#FFF337"/>
<path d="M815.057 609.457H774.127L843.438 469.752H895.278L918.198 609.457H877.27L863.628 508.225H862.533L815.057 609.457ZM816.694 554.339H893.643L888.731 582.716H811.782L816.694 554.339Z" fill="black"/>
<path d="M652.419 609.457L675.612 469.752H735.914C746.283 469.752 755.037 471.639 762.178 475.414C769.317 479.188 774.456 484.623 777.594 491.717C780.732 498.812 781.482 507.316 779.845 517.23C778.208 527.235 774.592 535.671 768.999 542.537C763.45 549.359 756.379 554.543 747.784 558.091C739.234 561.592 729.639 563.344 718.997 563.344H682.979L687.891 533.874H716.268C720.725 533.874 724.636 533.328 728.002 532.237C731.367 531.1 734.095 529.326 736.187 526.916C738.279 524.46 739.643 521.232 740.28 517.23C740.917 513.228 740.598 509.976 739.325 507.475C738.052 504.928 735.937 503.064 732.981 501.881C730.025 500.653 726.364 500.039 721.998 500.039H708.628L690.347 609.457H652.419ZM744.919 545.334L769.203 609.457H728.002L704.535 545.334H744.919Z" fill="black"/>
<path d="M661.486 469.752L638.293 609.457H600.365L623.558 469.752H661.486Z" fill="black"/>
<path d="M601.332 522.141H563.404C563.677 518.913 563.495 516.002 562.859 513.41C562.222 510.818 561.131 508.589 559.584 506.725C558.037 504.815 556.014 503.359 553.513 502.359C551.012 501.358 548.033 500.858 544.576 500.858C537.937 500.858 532.002 502.518 526.772 505.838C521.543 509.112 517.2 513.819 513.744 519.958C510.287 526.052 507.831 533.329 506.376 541.787C505.103 549.973 505.057 556.772 506.239 562.184C507.468 567.595 509.855 571.643 513.403 574.326C516.995 577.009 521.656 578.351 527.386 578.351C531.207 578.351 534.708 577.896 537.891 576.986C541.12 576.077 543.986 574.781 546.487 573.099C549.034 571.37 551.194 569.323 552.967 566.959C554.786 564.548 556.173 561.888 557.128 558.978H595.328C593.873 564.89 591.281 570.938 587.552 577.122C583.823 583.262 579.003 588.924 573.09 594.108C567.179 599.247 560.221 603.409 552.217 606.592C544.213 609.775 535.209 611.367 525.204 611.367C512.106 611.367 500.805 608.502 491.301 602.772C481.842 597.042 474.974 588.674 470.7 577.668C466.47 566.663 465.629 553.247 468.176 537.422C470.723 522.141 475.748 509.34 483.251 499.016C490.755 488.693 499.873 480.917 510.605 475.687C521.338 470.457 532.753 467.842 544.849 467.842C553.99 467.842 562.176 469.047 569.407 471.457C576.683 473.868 582.8 477.392 587.757 482.031C592.76 486.624 596.443 492.286 598.808 499.016C601.173 505.747 602.014 513.455 601.332 522.141Z" fill="black"/>
<path d="M427.648 469.752H465.575L450.705 559.25C448.977 569.892 444.929 579.101 438.562 586.878C432.241 594.609 424.192 600.588 414.414 604.818C404.637 609.002 393.768 611.094 381.807 611.094C369.756 611.094 359.569 609.002 351.247 604.818C342.925 600.588 336.877 594.609 333.102 586.878C329.373 579.101 328.372 569.892 330.1 559.25L344.972 469.752H382.899L368.574 555.976C367.892 560.296 368.233 564.139 369.597 567.504C370.961 570.87 373.167 573.53 376.214 575.486C379.261 577.395 382.945 578.35 387.264 578.35C391.63 578.35 395.655 577.395 399.339 575.486C403.068 573.53 406.161 570.87 408.616 567.504C411.072 564.139 412.641 560.296 413.323 555.976L427.648 469.752Z" fill="black"/>
<path d="M195.44 609.457L218.633 469.752H278.936C289.304 469.752 298.059 471.639 305.198 475.414C312.338 479.188 317.477 484.623 320.615 491.717C323.753 498.812 324.503 507.316 322.866 517.23C321.229 527.235 317.614 535.671 312.02 542.537C306.472 549.359 299.4 554.543 290.805 558.091C282.255 561.592 272.66 563.344 262.018 563.344H226L230.912 533.874H259.289C263.746 533.874 267.657 533.328 271.022 532.237C274.388 531.1 277.116 529.326 279.209 526.916C281.3 524.46 282.665 521.232 283.301 517.23C283.938 513.228 283.62 509.976 282.346 507.475C281.073 504.928 278.958 503.064 276.002 501.881C273.046 500.653 269.385 500.039 265.019 500.039H251.65L233.367 609.457H195.44ZM287.94 545.334L312.225 609.457H271.022L247.556 545.334H287.94Z" fill="black"/>
<path d="M70.9661 609.457L94.1592 469.752H154.734C165.376 469.752 174.085 471.184 180.861 474.049C187.682 476.914 192.503 480.962 195.322 486.192C198.188 491.422 199.029 497.584 197.847 504.678C196.937 509.771 194.981 514.433 191.98 518.662C189.024 522.846 185.272 526.393 180.725 529.304C176.222 532.169 171.197 534.147 165.649 535.238L165.376 536.603C171.379 536.785 176.609 538.285 181.066 541.105C185.522 543.879 188.797 547.745 190.888 552.702C192.98 557.613 193.481 563.344 192.389 569.892C191.116 577.532 188 584.331 183.044 590.288C178.087 596.245 171.652 600.929 163.739 604.341C155.826 607.752 146.821 609.457 136.726 609.457H70.9661ZM114.078 579.169H131.814C138.09 579.169 143.024 577.964 146.617 575.554C150.255 573.144 152.415 569.619 153.098 564.98C153.643 561.706 153.37 558.932 152.279 556.658C151.187 554.384 149.345 552.656 146.753 551.474C144.161 550.292 140.909 549.7 136.999 549.7H118.717L114.078 579.169ZM122.81 526.234H138.363C141.637 526.234 144.638 525.711 147.367 524.665C150.096 523.619 152.347 522.096 154.121 520.095C155.894 518.094 157.008 515.683 157.463 512.864C158.145 508.498 157.099 505.178 154.325 502.904C151.596 500.631 147.913 499.494 143.274 499.494H127.175L122.81 526.234Z" fill="black"/>
<path d="M959.344 533.174V486.905H977.602C981.099 486.905 984.079 487.53 986.551 488.78C989.031 490.015 990.924 491.77 992.223 494.044C993.529 496.303 994.186 498.962 994.186 502.019C994.186 505.092 993.521 507.735 992.199 509.949C990.869 512.148 988.953 513.835 986.434 515.01C983.939 516.185 980.911 516.772 977.352 516.772H965.133V508.91H975.772C977.641 508.91 979.19 508.654 980.426 508.142C981.662 507.63 982.578 506.861 983.18 505.837C983.798 504.813 984.111 503.54 984.111 502.019C984.111 500.483 983.798 499.188 983.18 498.133C982.578 497.079 981.654 496.281 980.403 495.738C979.167 495.181 977.61 494.903 975.725 494.903H969.131V533.174H959.344ZM984.338 512.118L995.837 533.174H985.034L973.785 512.118H984.338Z" fill="black"/>
<path fill-rule="evenodd" clip-rule="evenodd" d="M975.06 544.474C993.787 544.474 1008.96 529.297 1008.96 510.574C1008.96 491.851 993.787 476.673 975.06 476.673C956.341 476.673 941.165 491.851 941.165 510.574C941.165 529.297 956.341 544.474 975.06 544.474ZM975.06 553.515C998.778 553.515 1018.01 534.289 1018.01 510.574C1018.01 486.858 998.778 467.633 975.06 467.633C951.35 467.633 932.122 486.858 932.122 510.574C932.122 534.289 951.35 553.515 975.06 553.515Z" fill="black"/>
</g>
<defs>
<clipPath id="clip0_1297_12813">
<rect width="1080" height="1080" fill="white"/>
</clipPath>
</defs>
</svg>
